{"title":"Lil Wayne Ft. Bruno Mars - Mirror (h264/mp4)","uid":7013483,"size":87038858,"categoryP":"video","categoryS":"music_videos","magnet":"?xt=urn:btih:a7ba58546571c7a164eb3867e7f30bd5c528cd01&amp;dn=Lil+Wayne+Ft.+Bruno+Mars+-+Mirror+%28h264%2Fmp4%29&amp;tr=udp%3A%2F%2Ftracker.openbittorrent.com%3A80&amp;tr=udp%3A%2F%2Fopen.demonii.com%3A1337&amp;tr=udp%3A%2F%2Ftracker.coppersurfer.tk%3A6969&amp;tr=udp%3A%2F%2Fexodus.desync.com%3A6969","seeders":1,"leechers":0,"uploader":"MusicVideos-HQ","files":1,"time":1328564219,"description":"General\n\n\nFormat                           : MPEG-4\nFormat profile                   : Base Media\nCodec ID                         : isom\nFile size                        : 83.0 MiB\nDuration                         : 4mn 2s\nOverall bit rate                 : 2 877 Kbps\nEncoded date                     : UTC 2012-02-06 02:57:15\nTagged date                      : UTC 2012-02-06 02:57:15\n\nVideo\nID                               : 1\nFormat                           : AVC\nFormat/Info                      : Advanced Video Codec\nFormat profile                   : &lt;a class=&quot;__cf_email__&quot; href=&quot;/cdn-cgi/l/email-protection&quot; data-cfemail=&quot;cc84a5aba48c80ffe2fc&quot;&gt;[email&amp;#160;protected]&lt;/a&gt;&lt;script cf-hash='f9e31' type=&quot;text/javascript&quot;&gt;\n/* &lt;![CDATA[ */!function(){try{var t=&quot;currentScript&quot;in document?document.currentScript:function(){for(var t=document.getElementsByTagName(&quot;script&quot;),e=t.length;e--;)if(t[e].getAttribute(&quot;cf-hash&quot;))return t[e]}();if(t&amp;&amp;t.previousSibling){var e,r,n,i,c=t.previousSibling,a=c.getAttribute(&quot;data-cfemail&quot;);if(a){for(e=&quot;&quot;,r=parseInt(a.substr(0,2),16),n=2;a.length-n;n+=2)i=parseInt(a.substr(n,2),16)^r,e+=String.fromCharCode(i);e=document.createTextNode(e),c.parentNode.replaceChild(e,c)}}}catch(u){}}();/* ]]&gt; */&lt;/script&gt;\nFormat settings, CABAC           : Yes\nFormat settings, ReFrames        : 2 frames\nCodec ID                         : avc1\nCodec ID/Info                    : Advanced Video Coding\nDuration                         : 4mn 2s\nBit rate mode                    : Variable\nBit rate                         : 2 810 Kbps\nNominal bit rate                 : 3 004 Kbps\nMaximum bit rate                 : 7 964 Kbps\nWidth                            : 720 pixels\nHeight                           : 480 pixels\nDisplay aspect ratio             : 16:9\nOriginal display aspect ratio    : 16:9\nFrame rate mode                  : Constant\nFrame rate                       : 23.976 fps\nStandard                         : NTSC\nColor space                      : YUV\nChroma subsampling               : 4:2:0\nBit depth                        : 8 bits\nScan type                        : Progressive\nBits/(Pixel*Frame)               : 0.339\nStream size                      : 81.1 MiB (98%)\n\n\nAudio\nID                               : 2\nFormat                           : AAC\nFormat/Info                      : Advanced Audio Codec\nFormat profile                   : LC\nCodec ID                         : 40\nDuration                         : 4mn 1s\nBit rate mode                    : Variable\nBit rate                         : 60.3 Kbps\nMaximum bit rate                 : 71.9 Kbps\nChannel(s)                       : 2 channels\nChannel positions                : Front: L R\nSampling rate                    : 44.1 KHz\nCompression mode                 : Lossy\nStream size                      : 1.74 MiB (2%)\n\n\n","torrent":{"xt":"urn:btih:a7ba58546571c7a164eb3867e7f30bd5c528cd01","amp;dn":"Lil+Wayne+Ft.+Bruno+Mars+-+Mirror+%28h264%2Fmp4%29","amp;tr":["udp%3A%2F%2Ftracker.openbittorrent.com%3A80","udp%3A%2F%2Fopen.demonii.com%3A1337","udp%3A%2F%2Ftracker.coppersurfer.tk%3A6969","udp%3A%2F%2Fexodus.desync.com%3A6969"],"infoHash":"a7ba58546571c7a164eb3867e7f30bd5c528cd01","infoHashBuffer":{"type":"Buffer","data":[167,186,88,84,101,113,199,161,100,235,56,103,231,243,11,213,197,40,205,1]},"announce":[],"urlList":[]}}